<?xml version="1.0" encoding="UTF-8"?>
<svg version="1.1" xmlns="http://www.w3.org/2000/svg" width="304" height="290">
<path d="M0 0 C100.32 0 200.64 0 304 0 C304 95.7 304 191.4 304 290 C203.68 290 103.36 290 0 290 C0 194.3 0 98.6 0 0 Z " fill="#FEFEFE" transform="translate(0,0)"/>
<path d="M0 0 C1.13405273 -0.00845947 1.13405273 -0.00845947 2.29101562 -0.01708984 C15.41043738 0.15132745 27.13834054 5.6044289 36.609375 14.6171875 C44.36945913 23.60117752 49.21424794 34.0230605 49.25 46 C49.26675781 47.28261719 49.28351563 48.56523438 49.30078125 49.88671875 C48.78951106 59.97193557 45.29793135 68.43584929 40.1875 77 C39.33357666 78.4708606 39.33357666 78.4708606 38.46240234 79.97143555 C36.63957498 83.09667134 34.79294975 86.20653326 32.9375 89.3125 C32.33260742 90.32602539 31.72771484 91.33955078 31.10449219 92.38378906 C28.63363986 96.51505415 26.15623919 100.64224081 23.66699219 104.76245117 C19.16234669 112.2262225 14.77332389 119.74956896 10.4375 127.3125 C4.89991796 136.96734542 -0.76511668 146.53598589 -6.51220703 156.06738281 C-10.70852673 163.03465078 -14.84732988 170.03241051 -18.9375 177.0625 C-19.50130371 178.03155273 -20.06510742 179.00060547 -20.64599609 179.99902344 C-21.8219448 182.02106147 -22.99772171 184.04319943 -24.17333984 186.06542969 C-29.46532501 195.16124291 -34.77463147 204.24678772 -40.11938477 213.31170654 C-42.18278916 216.81215121 -44.22967751 220.32173402 -46.26953125 223.8359375 C-54.9540634 238.6516843 -63.84874447 247.79717097 -80.48046875 253.48046875 C-92.48393625 256.26862423 -105.20436356 254.96999098 -115.84375 248.6640625 C-127.39138749 240.88638902 -135.65611281 230.72121091 -139.3125 217.1875 C-142.32179206 201.5391813 -138.55769701 189.88421904 -130.625 176.5 C-130.10349365 175.604021 -129.5819873 174.70804199 -129.04467773 173.78491211 C-127.39364672 170.95495982 -125.72937648 168.1331432 -124.0625 165.3125 C-122.9894102 163.48708093 -121.91649189 161.66156104 -120.84375 159.8359375 C-118.13431797 155.23406634 -115.41224959 150.63979625 -112.68603516 146.04785156 C-110.05677464 141.61804181 -107.43399526 137.18440848 -104.8125 132.75 C-104.0237146 131.41594116 -104.0237146 131.41594116 -103.21899414 130.05493164 C-98.27864384 121.69213363 -93.36873391 113.31156748 -88.46008301 104.93014526 C-83.33148958 96.17370815 -78.18472568 87.42832407 -73.01342773 78.69702148 C-69.62310759 72.96789912 -66.25512258 67.22602738 -62.89877319 61.47695923 C-59.65908158 55.92915488 -56.40499083 50.38991172 -53.14501953 44.85400391 C-51.78670846 42.5466807 -50.43457629 40.2360815 -49.08544922 37.92333984 C-47.25779141 34.79497152 -45.41263458 31.67761389 -43.5625 28.5625 C-43.03599854 27.65314697 -42.50949707 26.74379395 -41.96704102 25.80688477 C-36.02567852 15.89532039 -28.42021542 8.49135771 -18.0625 3.3125 C-17.4025 2.9721875 -16.7425 2.631875 -16.0625 2.28125 C-10.84031139 0.07813918 -5.5854011 0.03970127 0 0 Z " fill="#2CB603" transform="translate(237.0625,17.6875)"/>
<path d="M0 0 C1.390979 0.01244751 1.390979 0.01244751 2.81005859 0.02514648 C15.6688702 0.34116241 26.46131578 4.75515346 36.00390625 13.50390625 C47.61796144 25.82317921 50.43705389 38.31444705 50.125 54.69921875 C49.61768109 65.83668063 45.17269829 74.22240037 37.75 82.4375 C37.25113281 83.05109375 36.75226563 83.6646875 36.23828125 84.296875 C29.95928916 91.44575264 18.26819747 97.59900075 8.80395508 98.65454102 C-7.56536399 99.57242914 -20.58880939 96.10308574 -33.25 85.4375 C-43.76868677 74.9018202 -48.12731947 62.18788577 -48.625 47.5625 C-48.37780501 34.14126614 -42.52985639 22.87650475 -33.5 13.125 C-28.99776339 8.8670708 -23.86493428 5.99591764 -18.25 3.4375 C-17.66766602 3.16752197 -17.08533203 2.89754395 -16.48535156 2.61938477 C-10.97501239 0.2813076 -5.94376973 -0.0685363 0 0 Z " fill="#2CB604" transform="translate(48.25,17.5625)"/>
<path d="M0 0 C0 3 0 3 -2.40625 5.69921875 C-3.4299968 6.70302243 -4.4616054 7.69885649 -5.5 8.6875 C-6.02464844 9.19861328 -6.54929687 9.70972656 -7.08984375 10.23632812 C-8.38660904 11.49772708 -9.69246117 12.74977212 -11 14 C-11.66 13.67 -12.32 13.34 -13 13 C-11.58791833 11.39179588 -10.17013964 9.78859292 -8.75 8.1875 C-7.96109375 7.29417969 -7.1721875 6.40085937 -6.359375 5.48046875 C-4.34120555 3.35871775 -2.40083295 1.65745577 0 0 Z " fill="#36B913" transform="translate(21,26)"/>
</svg>
